<?xml version="1.0" encoding="UTF-8"?>
<svg xmlns="http://www.w3.org/2000/svg" xmlns:xlink="http://www.w3.org/1999/xlink" width="30pt" height="30.000001pt" viewBox="0 0 30 30.000001" version="1.2">
<defs>
<clipPath id="clip1">
  <path d="M 13 0 L 28.472656 0 L 28.472656 29.03125 L 13 29.03125 Z M 13 0 "/>
</clipPath>
<clipPath id="clip2">
  <path d="M 2.347656 7 L 17 7 L 17 22 L 2.347656 22 Z M 2.347656 7 "/>
</clipPath>
</defs>
<g id="surface1">
<g clip-path="url(#clip1)" clip-rule="nonzero">
<path style=" stroke:none;fill-rule:nonzero;fill:rgb(32.939148%,62.348938%,84.309387%);fill-opacity:1;" d="M 23.078125 1.386719 C 21.671875 0 19.378906 0 17.96875 1.386719 C 16.8125 2.527344 16.605469 4.246094 17.34375 5.597656 L 13.222656 9.65625 L 14.683594 11.09375 L 18.804688 7.035156 C 19.339844 7.316406 19.933594 7.460938 20.523438 7.460938 C 21.449219 7.460938 22.375 7.113281 23.078125 6.421875 C 24.488281 5.03125 24.488281 2.777344 23.078125 1.386719 Z M 21.617188 4.980469 C 21.015625 5.578125 20.03125 5.578125 19.429688 4.980469 C 18.824219 4.386719 18.824219 3.421875 19.429688 2.824219 C 19.730469 2.527344 20.128906 2.378906 20.523438 2.378906 C 20.921875 2.378906 21.316406 2.527344 21.621094 2.824219 C 22.222656 3.421875 22.222656 4.386719 21.617188 4.980469 Z M 23.078125 22.953125 C 21.925781 21.816406 20.175781 21.609375 18.804688 22.339844 L 14.550781 18.152344 L 13.089844 19.589844 L 17.34375 23.777344 C 17.058594 24.289062 16.910156 24.867188 16.910156 25.46875 C 16.910156 26.417969 17.285156 27.3125 17.96875 27.984375 C 18.652344 28.65625 19.558594 29.027344 20.523438 29.027344 C 21.488281 29.027344 22.394531 28.65625 23.078125 27.984375 C 23.761719 27.3125 24.136719 26.417969 24.136719 25.46875 C 24.136719 24.519531 23.761719 23.625 23.078125 22.953125 Z M 21.617188 26.546875 C 21.328125 26.832031 20.9375 26.992188 20.523438 26.992188 C 20.109375 26.992188 19.71875 26.832031 19.429688 26.546875 C 19.136719 26.257812 18.972656 25.875 18.972656 25.46875 C 18.972656 25.058594 19.136719 24.675781 19.429688 24.390625 C 19.730469 24.09375 20.125 23.945312 20.523438 23.945312 C 20.921875 23.945312 21.316406 24.09375 21.617188 24.390625 C 21.910156 24.675781 22.074219 25.0625 22.074219 25.46875 C 22.074219 25.875 21.910156 26.257812 21.617188 26.546875 Z M 25.058594 11.128906 C 23.425781 11.128906 22.042969 12.199219 21.597656 13.667969 L 15.765625 13.667969 L 15.765625 15.703125 L 21.597656 15.703125 C 22.042969 17.171875 23.425781 18.246094 25.058594 18.246094 C 27.054688 18.246094 28.675781 16.648438 28.675781 14.6875 C 28.675781 12.722656 27.054688 11.128906 25.058594 11.128906 Z M 25.058594 16.210938 C 24.207031 16.210938 23.511719 15.527344 23.511719 14.6875 C 23.511719 13.84375 24.207031 13.160156 25.058594 13.160156 C 25.914062 13.160156 26.609375 13.84375 26.609375 14.6875 C 26.609375 15.527344 25.914062 16.210938 25.058594 16.210938 Z M 25.058594 16.210938 "/>
</g>
<path style=" stroke:none;fill-rule:nonzero;fill:rgb(18.03894%,44.709778%,72.158813%);fill-opacity:1;" d="M 14.683594 11.089844 L 13.222656 9.652344 L 14.316406 8.574219 L 15.777344 10.011719 Z M 15.777344 19.359375 L 14.554688 18.152344 L 13.09375 19.589844 L 14.316406 20.796875 Z M 17.316406 13.667969 L 15.765625 13.667969 L 15.765625 15.703125 L 17.316406 15.703125 Z M 17.316406 13.667969 "/>
<g clip-path="url(#clip2)" clip-rule="nonzero">
<path style=" stroke:none;fill-rule:nonzero;fill:rgb(22.749329%,50.588989%,76.469421%);fill-opacity:1;" d="M 9.570312 21.800781 C 5.585938 21.800781 2.34375 18.609375 2.34375 14.6875 C 2.34375 10.761719 5.585938 7.570312 9.570312 7.570312 C 13.558594 7.570312 16.800781 10.761719 16.800781 14.6875 C 16.800781 18.609375 13.558594 21.800781 9.570312 21.800781 Z M 9.570312 9.601562 C 6.722656 9.601562 4.410156 11.882812 4.410156 14.6875 C 4.410156 17.488281 6.722656 19.769531 9.570312 19.769531 C 12.417969 19.769531 14.734375 17.488281 14.734375 14.6875 C 14.734375 11.882812 12.417969 9.601562 9.570312 9.601562 Z M 9.570312 18.242188 C 7.578125 18.242188 5.957031 16.648438 5.957031 14.6875 C 5.957031 12.722656 7.578125 11.128906 9.570312 11.128906 C 11.5625 11.128906 13.183594 12.722656 13.183594 14.6875 C 13.183594 16.648438 11.5625 18.242188 9.570312 18.242188 Z M 9.570312 13.160156 C 8.71875 13.160156 8.023438 13.84375 8.023438 14.6875 C 8.023438 15.527344 8.71875 16.210938 9.570312 16.210938 C 10.425781 16.210938 11.121094 15.527344 11.121094 14.6875 C 11.121094 13.84375 10.425781 13.160156 9.570312 13.160156 Z M 9.570312 13.160156 "/>
</g>
</g>
</svg>
